<?xml version="1.0" standalone="no"?><!DOCTYPE svg PUBLIC "-//W3C//DTD SVG 1.1//EN" "http://www.w3.org/Graphics/SVG/1.1/DTD/svg11.dtd"><svg t="1722472191794" class="icon" viewBox="0 0 1024 1024" version="1.1" xmlns="http://www.w3.org/2000/svg" p-id="1592" xmlns:xlink="http://www.w3.org/1999/xlink" width="200" height="200"><path d="M953.99453 424.055442c0 0-40.276349 29.045552-62.736919 38.699432-22.45136 9.631368-31.35925-7.757692-31.35925-7.757692l-101.948005-154.839686c-1.661851-8.350187 15.68423-15.470359 15.68423-15.470359s35.513877-28.211557 54.896339-38.721945c19.380415-10.505272 31.367436 7.739273 31.367436 7.739273s82.151104 128.754561 94.096169 147.101436C965.938572 419.155847 953.99453 424.055442 953.99453 424.055442zM828.530925 447.284516c0 0 3.461848 12.402484-7.842627 23.228051-11.315731 10.782588-58.059382 64.592175-62.737942 69.662662 0 0-8.631596 13.619196-23.526856-7.735179C719.528239 511.065209 548.09972 364.218576 538.382395 362.08498c-9.717325-2.0855-8.918122-10.654675-31.35925 0-22.449314 10.698677-117.632235 54.213793-117.632235 54.213793s-28.48171 5.24138-39.210063-15.492871c-10.72119-20.712761 2.461054-36.843153 23.526856-46.434612 21.063756-9.588389 109.789608-54.213793 109.789608-54.213793s38.955259-26.359371 94.096169-23.228051c55.139886 3.155879 180.357898 46.456101 180.357898 46.456101L828.530925 447.284516zM318.822621 393.070723c9.13097 35.015526 47.042456 46.456101 47.042456 46.456101l-109.780399 92.913226c0.287549 0.042979-14.265926 9.293676-32.625081-6.3926-17.325615-14.789859-45.795045-44.665314-45.795045-55.535906 0-10.865476 121.265999-144.650616 109.790632-139.368304 15.534827-7.161104 93.327665-9.716302 94.094122 0C382.316788 340.81861 311.843666 366.348078 318.822621 393.070723zM177.66353 447.284516c-17.165979 24.040557-31.367436 15.471382-31.367436 15.471382s-33.351629-14.23318-62.728733-38.699432c-29.375057-24.505138-15.68423-38.720922-15.68423-38.720922s69.792622-95.810208 94.096169-131.630054c24.314803-35.801426 47.051666-23.228051 47.051666-23.228051s48.428014 42.232912 62.736919 54.210723c14.311975 11.958368 0 30.94481 0 30.94481S194.839741 423.204051 177.66353 447.284516zM365.865077 454.998206c0 0 18.230218-16.449664 39.210063 7.757692 20.256366 23.377453 0 38.698409 0 38.698409l-94.096169 85.155534c0 0-22.397125 7.630802-39.211086-7.712667-16.823171-15.387471-7.84058-30.985743-7.84058-30.985743L365.865077 454.998206zM420.75937 509.211999c0 0 18.232265-16.493666 39.210063 7.735179 20.24511 23.378477 0 38.721945 0 38.721945l-101.948005 92.913226c0 0-22.384845 7.608289-39.19983-7.757692-16.823171-15.365981-7.842627-30.985743-7.842627-30.985743L420.75937 509.211999zM452.128853 578.897175c0 0 18.230218-16.493666 39.210063 7.712667 20.24511 23.399966 0 38.743435 0 38.743435l-78.421149 77.397842c0 0-22.386892 7.629779-39.210063-7.735179-16.813961-15.365981-7.842627-30.964253-7.842627-30.964253L452.128853 578.897175zM483.496289 656.295016c0 0 18.232265-16.449664 39.19983 7.757692 20.256366 23.377453 0 38.698409 0 38.698409l-54.883036 54.213793c0 0-22.385869 7.629779-39.211086-7.757692-16.825217-15.343468-7.842627-30.94174-7.842627-30.94174L483.496289 656.295016zM569.749831 764.701113c-3.228534 19.584054-39.210063 30.96323-39.210063 30.96323l-39.19983-38.698409 47.042456-54.213793C538.382395 702.751117 572.989622 745.116036 569.749831 764.701113zM507.023145 633.088455c0 0 1.780555-3.473105 7.83137-15.492871 6.063095-12.019767-13.499469-52.339094-31.358226-54.192304 0 0-10.036597-3.429102 0-15.492871 0 0-15.13983-50.759108-54.895316-54.192304 0 0-17.837268-51.631989-39.210063-54.191281 0 0 113.219734-53.785028 117.632235-54.192304 4.401244-0.425696 17.187468-10.717097 31.35925 0 0 0 147.167951 106.360506 172.515271 147.10553 25.348343 40.744 70.580569 108.383584 70.580569 108.383584s9.68458 17.770753-23.526856 38.698409c-33.211436 20.950169-47.053713-15.470359-47.053713-15.470359l-47.04041-92.913226c0 0-27.310023-5.009089-15.686276 15.470359 11.614537 20.50196 62.726686 108.40712 62.726686 108.40712s10.347683 19.32925-7.84058 30.96323c-18.178029 11.63398-30.111838 12.318572-47.042456-7.71369-16.930618-20.075241-54.894293-92.912202-54.894293-92.912202s-24.305593-13.807484-15.686276 7.735179c8.62034 21.546757 54.896339 92.890713 54.896339 92.890713s-1.982146 9.931197-23.526856 23.228051c-21.54471 13.34188-31.369483-7.71369-31.369483-7.71369s-54.36115-86.134839-62.737942-92.912202C514.332629 641.76303 507.023145 633.088455 507.023145 633.088455z" fill="#272636" p-id="1593"></path></svg>